<svg width="238" height="41" viewBox="0 0 238 41" fill="none" xmlns="http://www.w3.org/2000/svg">
  <path d="M40.0713 40.8928V0.892761H18.4756L0.0712982 19.2971L0.0712891 40.8928H40.0713Z" fill="#2F2722"></path>
  <path fill-rule="evenodd" clip-rule="evenodd" d="M19.3818 27.4343L19.3818 39.5135L11.106 39.5134L11.106 24.0064L23.1851 11.9272L38.6922 11.9272L38.6922 20.2031L26.6131 20.2031L19.3818 27.4343Z" fill="#D62727"></path>
  <path fill-rule="evenodd" clip-rule="evenodd" d="M9.72655 23.2964L9.72655 39.5135L1.45068 39.5134L1.45069 19.8684L19.0471 2.27207L38.6921 2.27207L38.6921 10.5479L22.475 10.5479L9.72655 23.2964Z" fill="#FFD43E"></path>
  <path fill-rule="evenodd" clip-rule="evenodd" d="M29.0366 31.5723L29.0366 39.5135L20.7607 39.5135L20.7607 28.1443L27.3226 21.5824L38.6918 21.5824L38.6918 29.8583L30.7506 29.8583L29.0366 31.5723Z" fill="#EA721B"></path>
  
  <!-- Added text for "Logonix" -->
  <text x="50%" y="50%" font-family="Arial" font-size="40" text-anchor="middle" fill="#000000">Logonix</text>
  
</svg>
