<svg width="240" height="41" viewBox="0 0 240 41" fill="none" xmlns="http://www.w3.org/2000/svg">
<path d="M39.1437 33.3658L39.1467 33.3692L32.6766 39.0462C31.35 40.239 29.6347 40.9147 27.8466 40.948L27.8316 40.9483H5.65921C4.83843 40.9828 4.02053 40.8292 3.26881 40.4992C2.5038 40.1635 1.82796 39.6544 1.29573 39.0121C0.763471 38.37 0.389772 37.6131 0.204047 36.802C0.021775 36.0047 0.0257304 35.1756 0.216476 34.3799L1.92355 25.6879C2.07541 24.9313 2.47675 24.2464 3.06419 23.7423L3.1479 23.6705C2.96618 23.3962 2.83326 23.0923 2.75532 22.7721C2.65193 22.3474 2.64832 21.9055 2.74355 21.4805L4.45402 12.7723L4.45666 12.7599C4.78954 11.1973 5.628 9.78656 6.84373 8.74358L12.7675 3.54592C13.0416 3.23284 13.3425 2.9412 13.668 2.67458C14.9647 1.61241 16.5783 1.00756 18.2568 0.954017L18.2847 0.953125L40.484 1.01667C41.3039 0.982587 42.1208 1.13631 42.8717 1.46584C43.6368 1.80161 44.3126 2.31076 44.8448 2.9529C45.377 3.59494 45.7508 4.35191 45.9365 5.16336C46.119 5.96088 46.1147 6.78933 45.9243 7.58461L41.684 29.2301L41.6779 29.2564C41.3055 30.8649 40.4153 32.3076 39.1437 33.3658Z" fill="#0A0A0A"/>
<path d="M40.1375 3.01672C40.7207 2.98729 41.3027 3.09478 41.837 3.33042C42.3713 3.56605 42.8431 3.92332 43.2147 4.37382C43.5862 4.82431 43.8472 5.35542 43.9769 5.92479C44.1065 6.49416 44.1012 7.08602 43.9613 7.65295L39.7392 29.3122C39.4426 30.5991 38.7286 31.7518 37.7084 32.5904C36.6882 33.429 35.4191 33.9065 34.0991 33.9484H12.0088C11.4255 33.9775 10.8434 33.87 10.3089 33.6344C9.77442 33.3987 9.30234 33.0416 8.93023 32.5914C8.55812 32.1411 8.29625 31.6102 8.1655 31.041C8.03476 30.4717 8.03875 29.8797 8.17712 29.3122L9.8819 20.5497C9.98186 20.122 10.2204 19.7394 10.5604 19.4614C10.9004 19.1833 11.3228 19.0254 11.7619 19.0123C15.7928 19.1557 19.6644 19.4584 23.2731 20.7568L24.0697 25.7674C24.0892 25.8884 24.153 25.9978 24.2487 26.0743C24.3444 26.1509 24.4651 26.1892 24.5875 26.1817C24.728 26.1792 24.8655 26.1397 24.9858 26.0669C25.1061 25.9942 25.2051 25.8908 25.2726 25.7674L27.997 20.7568L33.4459 19.0362C33.5777 18.994 33.6963 18.9183 33.7899 18.8163C33.8835 18.7143 33.9489 18.5897 33.9796 18.4548C34.0108 18.3354 33.9961 18.2087 33.9386 18.0996C33.8812 17.9905 33.785 17.907 33.6689 17.8653L28.8892 16.1525L28.0926 11.1421C28.0732 11.0204 28.0096 10.9101 27.9142 10.8323C27.8187 10.7544 27.6979 10.7144 27.5748 10.7199C27.4334 10.7231 27.2954 10.7639 27.175 10.8381C27.0546 10.9123 26.9561 11.0172 26.8897 11.1421L24.1653 16.1525C20.2146 17.2857 16.1268 17.8702 12.0168 17.8892C11.8195 17.906 11.6211 17.8756 11.4378 17.8007C11.2545 17.7259 11.0916 17.6087 10.9625 17.4586C10.8334 17.3085 10.7418 17.1298 10.6952 16.9374C10.6486 16.745 10.6483 16.5442 10.6944 16.3516L12.3992 7.58916C12.6941 6.30289 13.4066 5.15047 14.4255 4.31177C15.4444 3.47306 16.7123 2.99541 18.0313 2.95312L40.1375 3.01672Z" fill="#FF0032"/>
<path fill-rule="evenodd" clip-rule="evenodd" d="M115.303 20.835C114.186 27.1693 118.211 31.9279 124.739 31.9279C131.267 31.9279 136.97 27.1693 138.087 20.835C139.204 14.5008 135.179 9.74219 128.651 9.74219C122.123 9.74219 116.42 14.5008 115.303 20.835ZM132.007 20.835C131.451 23.9864 128.719 26.413 125.711 26.413C122.703 26.413 120.827 23.9864 121.383 20.835C121.939 17.6837 124.67 15.2571 127.678 15.2571C130.686 15.2571 132.563 17.6837 132.007 20.835Z" fill="#0A0A0A"/>
<path d="M102.926 31.9279C96.4621 31.9279 92.3954 27.0433 93.4901 20.835C94.5848 14.6268 100.31 9.74219 106.838 9.74219C110.678 9.74219 114.11 11.696 115.05 15.2571L109.751 17.9043C109.138 16.297 108.111 15.2256 105.615 15.2256C102.575 15.2256 100.143 17.5891 99.5534 20.9296C98.9366 24.4276 100.59 26.6651 103.854 26.6651C105.582 26.6651 106.698 26.5075 107.77 25.6882L108.266 22.7572L102.727 20.3096H114.423L114.258 21.3077H114.271L114.088 22.3434L114.077 22.4117L114.076 22.4122L113.159 27.6105C111.051 30.1316 107.278 31.9279 102.926 31.9279Z" fill="#0A0A0A"/>
<path fill-rule="evenodd" clip-rule="evenodd" d="M70.0527 20.835C68.9358 27.1693 72.9607 31.9279 79.4887 31.9279C86.0167 31.9279 91.7198 27.1693 92.8367 20.835C93.9536 14.5008 89.9287 9.74219 83.4007 9.74219C76.8727 9.74219 71.1696 14.5008 70.0527 20.835ZM86.7567 20.835C86.201 23.9864 83.4692 26.413 80.4612 26.413C77.4532 26.413 75.577 23.9864 76.1327 20.835C76.6884 17.6837 79.4203 15.2571 82.4283 15.2571C85.4363 15.2571 87.3124 17.6837 86.7567 20.835Z" fill="#0A0A0A"/>
<path d="M62.3849 10.1797L59.5787 26.0942H69.1147L68.1701 31.4515H57.8341C54.1861 31.4515 53.0475 29.5607 53.5754 26.5669L56.4649 10.1797H62.3849Z" fill="#0A0A0A"/>
<path d="M153.18 22.04L155.22 10.22H161.28L158.04 28.7C157.59 31.19 155.88 32.24 153.93 32.24C152.37 32.24 151.29 31.55 150.66 30.2L146.25 20.24L144.18 32H138.12L141.39 13.52C141.84 11.03 143.52 9.98 145.47 9.98C147.06 9.98 148.14 10.67 148.74 12.02L153.18 22.04ZM166.533 32H160.473L164.313 10.22H170.373L166.533 32ZM188.305 10.22H196.015L186.115 21.53L191.575 32H184.615L181.345 25.49L175.795 32H168.085L177.955 20.69L172.495 10.22H179.485L182.755 16.73L188.305 10.22Z" fill="#0A0A0A"/>
</svg>
